<?xml version="1.0" encoding="UTF-8"?>
<svg width="720" height="418" xmlns="http://www.w3.org/2000/svg" viewBox="0 0 681.47 463.57">
  <defs>
    <style>
      .cls-1 {
        fill: #000;
      }

      .cls-1, .cls-2 {
        stroke-width: 0px;
      }

      .cls-2 {
        fill: #283a48;
      }
    </style>
  </defs>
  <g id="Layer_2" data-name="Layer 2">
    <g id="Layer_2-2" data-name="Layer 2">
      <g>
        <path class="cls-2" d="M270.22,84.59c0,19.6.03,39.21-.01,58.81-.03,14.88-9.65,25.18-23.32,25.09-13.33-.09-23.1-10.48-23.12-24.83-.04-39.62-.06-79.23,0-118.85C223.79,10.41,233.55.08,246.92,0c13.35-.08,23.22,10.25,23.26,24.57.08,19.99.02,40.01.03,60.02Z"/>
        <path class="cls-2" d="M131.6,182.32c0-8.77-.12-17.54.03-26.31.22-13.07,10.06-22.91,22.81-23.04,13.05-.14,23.35,9.68,23.53,23,.23,17.54.2,35.1.01,52.64-.14,13.31-10.42,23.54-23.19,23.56-12.73.03-22.98-10.29-23.16-23.52-.14-8.77-.03-17.55-.03-26.32Z"/>
        <path class="cls-2" d="M455.07,213.53c.01,20.01.1,40.02-.03,60.03-.07,11.21-6.12,19.85-15.76,23.19-8.84,3.06-19.43.75-24.85-6.94-3.09-4.39-5.49-10.33-5.56-15.61-.45-40.22-.32-80.45-.22-120.67.03-14.06,9.82-24.06,23.05-24.06s23.14,10.07,23.3,24.03c.22,20,.06,40.02.07,60.03Z"/>
        <path class="cls-2" d="M500.9,105.7c0-8.77-.1-17.55.02-26.32.19-13.13,10.62-23.51,23.31-23.37,12.47.12,22.85,10.29,23.02,23.14.23,17.75.22,35.51,0,53.25-.17,13.21-10.62,23.03-23.7,22.82-12.76-.2-22.47-10.07-22.63-23.2-.11-8.77-.02-17.54-.02-26.31Z"/>
      </g>
    </g>
  </g>
  <g id="Layer_3" data-name="Layer 3">
    <g>
      <path class="cls-1" d="M105.14,397.68h-20.45v-55.03c0-2.35.02-4.65.07-6.93.04-2.26.11-4.82.18-7.63h-.52c-.48,1.42-.9,2.69-1.29,3.83-.39,1.14-.75,2.21-1.09,3.24l-21.56,62.54h-16.94l-21.94-61.9c-.42-1.23-.77-2.35-1.07-3.33-.28-.99-.72-2.45-1.31-4.36h-.57c.13,3.77.22,7.12.26,10.08.04,2.94.06,5.83.06,8.66v50.88H0v-91.99h30.66l18.8,54.52c.68,1.93,1.23,3.62,1.67,5.1.42,1.47.96,3.31,1.6,5.48h.39c.77-2.32,1.38-4.12,1.82-5.44s1.07-3.07,1.82-5.26l18.8-54.39h29.58v91.95h0Z"/>
      <path class="cls-1" d="M145.48,367.72v29.96h-20.71v-91.99h32.01c11.46,0,20.2,2.5,26.21,7.5s9.01,12.4,9.01,22.2-3.37,18.12-10.1,23.8c-6.73,5.68-15.76,8.53-27.09,8.53h-9.33v-.02ZM145.48,321.61v30.22h8.66c5.13,0,9.09-1.34,11.86-4.05,2.78-2.69,4.18-6.57,4.18-11.61,0-4.65-1.36-8.26-4.07-10.78-2.72-2.52-6.6-3.79-11.64-3.79h-8.99Z"/>
      <path class="cls-2" d="M199.17,382.73l15.52-9.1c1.42,2.91,3.44,5.28,6.07,7.08,2.63,1.82,5.87,2.72,9.71,2.72s7.25-1.03,9.91-3.11c2.67-2.08,4.01-5.1,4.01-9.07s-1.78-7.23-5.35-9.4c-3.57-2.15-8.48-3.26-14.72-3.31h-7.5v-15.78h6.86c5.98,0,10.48-1.01,13.46-3.02,3-2,4.49-5.21,4.49-9.56,0-3.29-1.07-5.83-3.18-7.6s-4.71-2.67-7.8-2.67c-2.91,0-5.61.74-8.11,2.21-2.5,1.47-4.58,3.79-6.25,6.95l-15.08-7.25c2.61-5,6.66-9.18,12.16-12.54,5.5-3.37,12.01-5.04,19.53-5.04,9.4,0,16.66,2.13,21.74,6.38,5.1,4.25,7.63,10.12,7.63,17.6,0,5-1.34,9.38-4.05,13.15-2.69,3.77-6.75,6.53-12.2,8.28v.31c5.87,1.03,10.48,3.49,13.89,7.41,3.4,3.92,5.1,8.61,5.1,14.09,0,8.59-3.07,15.4-9.2,20.4-6.14,5-14.18,7.5-24.15,7.5-8,0-14.66-1.43-20.01-4.3-5.32-2.81-9.49-6.95-12.49-12.34Z"/>
      <path class="cls-1" d="M333.32,371.38c0,8.77-1.93,15.6-5.78,20.49-3.84,4.89-9.84,7.34-17.95,7.34-2.06,0-3.95-.13-5.7-.39-1.75-.26-3.59-.68-5.52-1.29l2.81-9.31c1.45.48,2.83.81,4.14.99s2.61.29,3.94.29c4.27,0,7.56-1.36,9.84-4.1,2.28-2.74,3.44-7.38,3.44-13.92v-65.81h10.78v65.7h0Z"/>
      <path class="cls-1" d="M423.96,360.42c0,12.95-2.91,22.66-8.72,29.12-5.81,6.46-14.57,9.69-26.23,9.69s-19.53-3.11-25.11-9.31c-5.57-6.2-8.37-15.52-8.37-27.98v-56.25h10.78v55.55c0,9.42,1.99,16.48,5.96,21.21,3.97,4.73,9.95,7.08,17.9,7.08s13.46-2.28,17.29-6.82c3.83-4.56,5.74-11.39,5.74-20.49v-56.51h10.78v54.7h-.02Z"/>
      <path class="cls-1" d="M457.69,397.68h-10.78v-91.99h10.78v91.99Z"/>
      <path class="cls-1" d="M546.67,393.07c-4.45,2.13-8.79,3.7-13.02,4.69-4.23.97-8.83,1.47-13.8,1.47-13.91,0-24.7-4.21-32.43-12.64-7.73-8.42-11.57-19.48-11.57-33.16,0-15.01,4.3-26.97,12.93-35.89,8.61-8.92,19.85-13.37,33.72-13.37,4.32,0,8.37.4,12.16,1.21,3.79.81,7.71,2.12,11.77,3.92l-3.97,8.85c-3.38-1.49-6.66-2.58-9.82-3.24-3.16-.66-6.58-.99-10.26-.99-10.78,0-19.33,3.48-25.7,10.43-6.35,6.95-9.53,16.43-9.53,28.46,0,11.26,3.05,20.18,9.14,26.82,6.09,6.62,14.16,9.95,24.22,9.95,3.72,0,7.36-.4,10.94-1.21,3.57-.81,7.21-2.13,10.94-3.97l4.27,8.68Z"/>
      <path class="cls-1" d="M611.96,397.68h-48.74v-91.99h46.7v9.75h-35.92v30.61h33.24v9.69h-33.24v32.21h37.98v9.73h-.02Z"/>
      <path class="cls-1" d="M621.71,390.62l5.26-8.07c3.77,2.45,7.52,4.21,11.29,5.32,3.77,1.12,8.15,1.67,13.15,1.67,5.59,0,10.21-1.31,13.83-3.95,3.61-2.63,5.43-6.47,5.43-11.51,0-4.49-1.53-8.07-4.58-10.78-3.05-2.69-8.07-5.3-15.05-7.82-8.65-3.13-15.05-6.64-19.22-10.56s-6.25-9.09-6.25-15.49c0-7.52,2.7-13.61,8.11-18.28,5.41-4.65,12.53-6.99,21.34-6.99,4.1,0,8.13.44,12.07,1.31,3.94.88,8,2.3,12.2,4.27l-4.05,8.66c-3.51-1.62-6.92-2.8-10.23-3.53-3.31-.74-6.9-1.09-10.74-1.09-5.52,0-9.88,1.29-13.08,3.88-3.2,2.59-4.82,6.16-4.82,10.74,0,4.03,1.47,7.23,4.43,9.62,2.94,2.39,7.87,4.84,14.75,7.32,9.23,3.33,15.87,7.06,19.88,11.17,4.01,4.1,6.03,9.64,6.03,16.61,0,7.43-2.69,13.65-8.07,18.63-5.39,4.98-12.95,7.47-22.72,7.47-5.48,0-10.52-.68-15.14-2.06-4.65-1.36-9.25-3.53-13.83-6.53Z"/>
    </g>
    <rect class="cls-2" x="316.23" y="109.49" width="46.52" height="91.45" rx="23.26" ry="23.26"/>
  </g>
</svg>
