<?xml version="1.0" encoding="UTF-8"?>
<svg width="720" height="418" id="Layer_1" data-name="Layer 1" xmlns="http://www.w3.org/2000/svg" viewBox="0 0 694.61 367.51">
  <defs>
    <style>
      .cls-1 {
        fill: #000;
      }

      .cls-1, .cls-2 {
        stroke-width: 0px;
      }

      .cls-2 {
        fill: #283a48;
      }
    </style>
  </defs>
  <g id="Layer_2" data-name="Layer 2">
    <g id="Layer_2-2" data-name="Layer 2-2">
      <g>
        <path class="cls-2" d="M131.79,143.41c0-9.09-.12-18.18.03-27.28.23-13.55,10.43-23.75,23.65-23.89,13.53-.15,24.21,10.04,24.39,23.84.24,18.18.21,36.39.01,54.57-.15,13.8-10.8,24.4-24.04,24.42-13.2.03-23.82-10.67-24.01-24.38-.15-9.09-.03-18.19-.03-27.29h0Z"/>
        <path class="cls-2" d="M514.64,63.96c0-9.09-.1-18.19.02-27.29.2-13.61,11.01-24.37,24.17-24.23,12.93.12,23.69,10.67,23.86,23.99.24,18.4.23,36.81,0,55.2-.18,13.69-11.01,23.87-24.57,23.66-13.23-.21-23.29-10.44-23.46-24.05-.11-9.09-.02-18.18-.02-27.28h0Z"/>
        <path class="cls-2" d="M347.31,67.9h0c13.32,0,24.11,10.8,24.11,24.11v46.58c0,13.32-10.8,24.11-24.11,24.11h0c-13.32,0-24.11-10.8-24.11-24.11v-46.58c0-13.32,10.8-24.11,24.11-24.11Z"/>
        <path class="cls-2" d="M467.14,143.42c.01,20.74.1,41.49-.03,62.23-.07,11.62-6.34,20.58-16.34,24.04-9.16,3.17-20.14.78-25.76-7.19-3.2-4.55-5.69-10.71-5.76-16.18-.47-41.7-.33-83.4-.23-125.1.03-14.58,10.18-24.94,23.9-24.94s23.99,10.44,24.15,24.91c.23,20.73.06,41.49.07,62.23h0Z"/>
        <path class="cls-2" d="M275.5,87.69c0,20.32.03,40.65-.01,60.97-.03,15.43-10,26.1-24.18,26.01-13.82-.09-23.95-10.86-23.97-25.74-.04-41.07-.06-82.14,0-123.21C227.37,10.79,237.48.08,251.35,0c13.84-.08,24.07,10.63,24.11,25.47.08,20.72.02,41.48.03,62.22h.01Z"/>
      </g>
    </g>
  </g>
  <g id="Layer_3" data-name="Layer 3">
    <g>
      <path class="cls-1" d="M107.17,365.79h-20.85v-56.1c0-2.39.02-4.75.07-7.07.04-2.3.11-4.91.19-7.79h-.53c-.49,1.44-.92,2.74-1.32,3.9s-.77,2.25-1.11,3.3l-21.98,63.75h-17.27l-22.37-63.09c-.44-1.25-.79-2.39-1.09-3.39-.28-1.02-.74-2.5-1.33-4.45h-.58c.13,3.85.23,7.26.26,10.27.04,3,.05,5.94.05,8.83v51.86H0v-93.76h31.26l19.16,55.57c.69,1.97,1.25,3.69,1.71,5.19.44,1.5.97,3.38,1.63,5.59h.39c.79-2.36,1.41-4.2,1.86-5.55s1.09-3.13,1.86-5.36l19.16-55.44h30.15v93.73h.01Z"/>
      <path class="cls-1" d="M148.29,335.25v30.54h-21.11v-93.76h32.62c11.68,0,20.59,2.55,26.72,7.65s9.19,12.64,9.19,22.63-3.43,18.46-10.29,24.26-16.07,8.7-27.62,8.7h-9.51v-.02h0ZM148.29,288.24v30.8h8.83c5.24,0,9.26-1.37,12.1-4.13,2.83-2.74,4.26-6.7,4.26-11.83,0-4.75-1.39-8.42-4.15-10.99-2.78-2.57-6.73-3.87-11.87-3.87h-9.17Z"/>
      <path class="cls-2" d="M203.01,350.54l15.82-9.28c1.44,2.96,3.5,5.38,6.19,7.22,2.69,1.86,5.98,2.78,9.9,2.78s7.39-1.05,10.11-3.17c2.72-2.11,4.08-5.19,4.08-9.25s-1.81-7.37-5.45-9.58c-3.64-2.2-8.65-3.32-15-3.38h-7.65v-16.09h7c6.1,0,10.69-1.03,13.73-3.08,3.06-2.04,4.57-5.31,4.57-9.74,0-3.36-1.09-5.94-3.24-7.74s-4.8-2.72-7.95-2.72c-2.96,0-5.72.75-8.27,2.25-2.55,1.5-4.67,3.87-6.38,7.09l-15.37-7.39c2.66-5.1,6.79-9.35,12.39-12.78,5.61-3.43,12.24-5.14,19.91-5.14,9.58,0,16.99,2.18,22.16,6.51,5.19,4.33,7.79,10.32,7.79,17.95,0,5.1-1.37,9.56-4.13,13.4-2.74,3.85-6.88,6.66-12.43,8.44v.32c5.98,1.05,10.69,3.57,14.15,7.56,3.47,3.99,5.19,8.77,5.19,14.36,0,8.76-3.13,15.7-9.37,20.8-6.26,5.1-14.45,7.65-24.62,7.65-8.16,0-14.94-1.46-20.4-4.39-5.42-2.87-9.67-7.09-12.73-12.59h.01Z"/>
      <path class="cls-1" d="M339.74,338.98c0,8.95-1.97,15.9-5.89,20.89s-10.04,7.48-18.3,7.48c-2.1,0-4.03-.13-5.82-.39-1.78-.26-3.66-.69-5.63-1.32l2.87-9.49c1.48.49,2.89.83,4.22,1.02s2.66.3,4.01.3c4.35,0,7.7-1.39,10.04-4.18,2.32-2.79,3.5-7.52,3.5-14.19v-67.08h10.99v66.97h0Z"/>
      <path class="cls-1" d="M432.14,327.8c0,13.2-2.96,23.1-8.88,29.68-5.92,6.58-14.85,9.88-26.74,9.88s-19.91-3.17-25.6-9.49c-5.68-6.31-8.53-15.82-8.53-28.52v-57.33h10.99v56.62c0,9.6,2.02,16.79,6.07,21.61,4.05,4.82,10.14,7.22,18.25,7.22s13.73-2.32,17.62-6.96c3.9-4.65,5.85-11.6,5.85-20.89v-57.6h10.99v55.76h-.02Z"/>
      <path class="cls-1" d="M466.53,365.79h-10.99v-93.76h10.99v93.76Z"/>
      <path class="cls-1" d="M557.21,361.08c-4.54,2.18-8.96,3.77-13.27,4.78-4.31,1-9,1.5-14.06,1.5-14.17,0-25.18-4.29-33.05-12.88-7.88-8.58-11.8-19.85-11.8-33.81,0-15.3,4.39-27.48,13.18-36.57,8.77-9.09,20.23-13.63,34.37-13.63,4.41,0,8.53.41,12.39,1.23s7.86,2.16,11.99,3.99l-4.05,9.02c-3.45-1.51-6.79-2.62-10.01-3.3s-6.71-1.02-10.46-1.02c-10.99,0-19.71,3.55-26.2,10.63-6.47,7.09-9.71,16.74-9.71,29.01,0,11.48,3.11,20.57,9.32,27.34,6.21,6.75,14.44,10.14,24.69,10.14,3.78,0,7.5-.41,11.15-1.23,3.64-.83,7.35-2.18,11.15-4.05l4.35,8.85h.01Z"/>
      <path class="cls-1" d="M623.78,365.79h-49.69v-93.76h47.6v9.94h-36.62v31.19h33.88v9.88h-33.88v32.83h38.72v9.92h-.02,0Z"/>
      <path class="cls-1" d="M633.71,358.58l5.36-8.23c3.85,2.5,7.67,4.29,11.51,5.42,3.85,1.14,8.3,1.71,13.4,1.71,5.7,0,10.41-1.33,14.1-4.03,3.67-2.69,5.54-6.6,5.54-11.74,0-4.57-1.56-8.23-4.67-10.99-3.11-2.74-8.23-5.4-15.33-7.97-8.81-3.18-15.33-6.77-19.59-10.76s-6.38-9.26-6.38-15.79c0-7.67,2.76-13.87,8.27-18.64,5.52-4.75,12.77-7.12,21.75-7.12,4.18,0,8.28.45,12.3,1.33,4.01.9,8.16,2.34,12.43,4.35l-4.13,8.83c-3.58-1.65-7.05-2.85-10.43-3.6s-7.03-1.11-10.95-1.11c-5.63,0-10.07,1.32-13.33,3.96-3.27,2.64-4.91,6.28-4.91,10.95,0,4.11,1.5,7.37,4.52,9.81,3,2.44,8.02,4.93,15.03,7.46,9.41,3.39,16.18,7.19,20.27,11.38s6.15,9.83,6.15,16.93c0,7.58-2.74,13.91-8.23,18.99s-13.2,7.61-23.16,7.61c-5.59,0-10.72-.69-15.43-2.1-4.75-1.39-9.43-3.6-14.1-6.66h.01Z"/>
    </g>
  </g>
</svg>
