<?xml version="1.0" encoding="UTF-8"?>
<svg width="720" height="418" viewBox="0 0 720 418" fill="none" xmlns="http://www.w3.org/2000/svg">
  <defs>
    <style>
      .cls-1 {
        fill: #5ab4fb;
        stroke-width: 0px;
      }

      .cls-2 {
        font-family: Dubai-Bold, Dubai;
        font-weight: 700;
      }

      .cls-3 {
        font-family: Dubai-Light, Dubai;
        font-weight: 300;
      }

      .cls-4 {
        fill: #000;
        font-size: 132.19px;
      }
    </style>
  </defs>
  <rect class="cls-1" x="98.64" y="102.32" width="39.24" height="169.23" rx="19.62" ry="19.62"/>
  <rect class="cls-1" x="18.05" y="170.09" width="39.88" height="35.8" rx="17.9" ry="17.9" transform="translate(225.99 150.01) rotate(90)"/>
  <rect class="cls-1" x="179.92" y="132.45" width="38.01" height="109.84" rx="19.01" ry="19.01"/>
  <rect class="cls-1" x="260.99" y="144.72" width="38.04" height="84.79" rx="19.02" ry="19.02"/>
  <rect class="cls-1" x="341.03" y="122.16" width="37.95" height="130.64" rx="18.97" ry="18.97"/>
  <rect class="cls-1" x="422" y="152.38" width="36.94" height="69.42" rx="18.47" ry="18.47"/>
  <rect class="cls-1" x="502.08" y="116.27" width="37.8" height="142.49" rx="18.9" ry="18.9"/>
  <rect class="cls-1" x="583.01" y="124.31" width="36.79" height="126.57" rx="18.39" ry="18.39"/>
  <rect class="cls-1" x="657.49" y="169.09" width="49.93" height="36.92" rx="18.46" ry="18.46" transform="translate(870 -494.91) rotate(90)"/>
  <text class="cls-4" transform="translate(55.89 394.95)"><tspan class="cls-2" x="0" y="0">MP3 </tspan><tspan class="cls-3" x="288.7" y="0">JUICS</tspan></text>
</svg>
