<?xml version="1.0" encoding="UTF-8"?>
<svg width="720" height="418" id="Layer_1" data-name="Layer 1" xmlns="http://www.w3.org/2000/svg" viewBox="0 0 720 418">
  <defs>
    <style>
      .cls-1, .cls-2, .cls-3, .cls-4 {
        isolation: isolate;
      }

      .cls-1, .cls-3 {
        font-family: LeelawadeeUI-Bold, 'Leelawadee UI';
        font-weight: 700;
      }

      .cls-1, .cls-3, .cls-4 {
        font-size: 114.77px;
      }

      .cls-1, .cls-5 {
        fill: #283a48;
      }

      .cls-3, .cls-4 {
        fill: #000;
      }

      .cls-5 {
        stroke-width: 0px;
      }

      .cls-4 {
        font-family: Dubai-Light, Dubai;
        font-weight: 300;
      }
    </style>
  </defs>
  <g id="Layer_6" data-name="Layer 6">
    <g class="cls-2">
      <g class="cls-2">
        <text class="cls-3" transform="translate(51.19 412.863)"><tspan x="0" y="0">MP</tspan></text>
        <text class="cls-1" transform="translate(231.52 412.863)"><tspan x="0" y="0">3</tspan></text>
      </g>
      <g class="cls-2">
        <text class="cls-4" transform="translate(301.84 412.863)"><tspan x="0" y="0">JUICES</tspan></text>
      </g>
    </g>
  </g>
  <g id="Layer_7" data-name="Layer 7">
    <path class="cls-5" d="M293.93,192.033c-6.15,12.74-11.46,23.58-16.63,34.48-2.94,6.19-7.07,10.68-14.49,10.29-7.38-.39-11.1-5.15-13.39-11.66-2.19-6.23-4.73-12.35-7.39-19.24-2.37,1.99-4.33,3.58-6.21,5.25-5.64,5.03-11.71,6.02-18.19,1.78-8.46-5.53-16.96-11-25.19-16.85-7.29-5.19-8.8-13.08-4.32-19.62,4.41-6.43,12.42-7.8,19.94-3.14,5.35,3.31,10.5,6.96,14.45,9.6,8.93-5.67,16.23-13.26,24.74-15,11.85-2.42,13.49,9.92,17.81,19.82,5.71-11.7,10.95-22.13,15.9-32.69,3.12-6.65,6.89-12.24,15.26-11.81s11.5,6.51,14.03,13.31c6.11,16.38,12.38,32.71,19.12,50.48,2.25-3.77,3.76-6.06,5.05-8.47,14.4-26.98,28.85-53.95,43.09-81.01,3.71-7.05,8.52-12.07,17.01-10.01,8.84,2.15,11.02,9.03,10.96,17.34-.15,21.02-.05,42.04,1.56,63.39,1.29-4.24,2.65-8.46,3.85-12.72,11.14-39.43,22.25-78.86,33.38-118.29.71-2.5,1.27-5.07,2.32-7.43,2.74-6.21,7.61-9.56,14.44-8.68,7.17.92,11.4,5.49,12.13,12.64.5,4.86.18,9.81.18,14.72v135.08c6.39-2.01,11.8-3.85,17.29-5.41,8.36-2.38,15.54,1.28,17.92,8.93,2.26,7.25-1.19,14.35-9.11,17.21-11.39,4.12-22.92,7.9-34.49,11.48-11.06,3.42-19.14-2.37-19.27-13.94-.23-20.2-.06-40.41-1.3-60.95-.8,2.25-1.72,4.45-2.37,6.74-12.12,42.75-24.25,85.5-36.27,128.27-1.85,6.6-5,12.65-12.25,12.61-4.51-.02-10.05-2.65-13.15-5.96-2.45-2.61-2.52-8.04-2.54-12.22-.18-36.65-.1-73.31-.1-112.16-2.26,3.29-3.59,4.86-4.53,6.63-10.6,19.85-21.21,39.7-31.67,59.63-3.32,6.34-7.51,11.01-15.38,10.29-7.46-.68-10.64-5.85-12.99-12.19-6.03-16.21-12.28-32.34-19.19-50.49l-.01-.03Z"/>
  </g>
</svg>
