<?xml version="1.0" encoding="UTF-8"?>
<svg width="720" height="418" id="Layer_3" data-name="Layer 3" xmlns="http://www.w3.org/2000/svg" viewBox="0 0 694.61 447.33">
  <defs>
    <style>
      .cls-1 {
        font-weight: 700;
      }

      .cls-1, .cls-2, .cls-3 {
        isolation: isolate;
      }

      .cls-1, .cls-3 {
        font-size: 129.48px;
      }

      .cls-4 {
        stroke-width: 0px;
      }

      .cls-4, .cls-5, .cls-3, .cls-6 {
        fill: #000;
      }

      .cls-7 {
        fill: #283a48;
        letter-spacing: 0em;
      }

      .cls-7, .cls-6 {
        font-family: LeelawadeeUI-Bold, 'Leelawadee UI';
      }

      .cls-5 {
        font-family: Dubai-Bold, Dubai;
      }

      .cls-3 {
        font-family: Dubai-Light, Dubai;
        font-weight: 300;
      }
    </style>
  </defs>
  <g class="cls-2">
    <text class="cls-1" transform="translate(14.63 374.95)"><tspan class="cls-6" x="0" y="0">MP</tspan><tspan class="cls-7" x="203.45" y="0">3</tspan><tspan class="cls-5" x="277.92" y="0"> </tspan></text>
    <text class="cls-3" transform="translate(297.41 374.95)"><tspan x="0" y="0">JUICES</tspan></text>
  </g>
  <path class="cls-4" d="M469.47,249.78c2.45-8.53,5.9-16.91,7.17-25.6,4.38-29.94,7.83-60.02,12.01-90,1.33-9.49,3.78-18.84,5.86-28.22.48-2.19,1.37-4.33,2.37-6.35,3.41-6.79,7.81-13.59,16.08-13.24,8.32.36,9.85,8.4,11.62,14.89,7.04,25.86,5.47,52.13,3.65,78.45-.82,11.85-1.06,23.78-.71,35.65.11,3.57,3.08,7.06,4.74,10.59,3.12-2.81,7.48-5.03,9.12-8.53,3.45-7.37,5.02-15.61,8.23-23.12,2.64-6.19,6.02-12.22,9.97-17.66,8.09-11.16,20.25-12.95,29.93-3.13,13.79,13.99,28.54,14.94,45.78,8.01,10.97-4.41,22.52-7.48,33.98-10.52,3.96-1.05,8.65-.96,12.6.09,2.58.69,6.38,4.28,6.17,6.17-.32,2.8-3.83,7.56-5.81,7.47-20.63-.89-38.32,9.35-57.35,14.34-13.04,3.41-24.34.67-34.45-8.67-14.46-13.36-19.59-12.02-27.13,6.23-3.78,9.15-6.58,18.79-11.21,27.47-3.06,5.74-7.83,11.3-13.2,14.9-8.33,5.57-17.22,2.21-20.37-7.39-2.34-7.14-3.74-14.92-3.8-22.43-.19-25.49.49-50.99.63-76.49.04-7.35-.46-14.72-1.14-22.04-.16-1.79-1.97-3.43-3.03-5.14-1.43,1.48-3.83,2.78-4.14,4.47-2.53,13.91-4.76,27.87-6.9,41.84-4.54,29.62-8.83,59.29-13.57,88.88-.79,4.93-2.93,9.76-5.1,14.33-3.06,6.43-6.5,13.36-15.26,12.36-8.1-.93-12.07-6.97-13.66-14.34-2.32-10.74-5.25-21.51-5.97-32.4-2.44-36.97-3.94-74-5.97-111-1.39-25.39-3.04-50.76-4.68-76.14-.2-3.07-.6-6.3-1.78-9.09-1.31-3.1-3.61-5.79-5.47-8.66-2.34,2.94-5.95,5.54-6.8,8.86-3.93,15.26-7.01,30.74-10.56,46.1-8.45,36.56-16.54,73.21-25.81,109.56-2.45,9.6-7.86,18.8-13.41,27.18-6.88,10.39-16.89,12.1-28.26,6.54-12.1-5.91-18.76-16.83-25.44-27.75-5.75-9.39-10.81-19.4-17.77-27.81-12.72-15.36-25.14-16.09-40.32-3.25-16.43,13.89-32.41,28.33-48.69,42.41-32.55,28.15-70.43,33.21-111.45,26.41-18.5-3.07-37.36-8.77-55.97-1.07-7.65,3.17-14.6,8.13-21.65,12.61-4.48,2.84-9.01,8.05-13.87,2.15-4.54-5.5-.9-10.6,3.61-14.71,17.73-16.13,38.84-21.51,62.13-18.72,16.82,2.01,33.49,5.25,50.29,7.38,19.74,2.5,39.06-.7,55.28-11.99,18.73-13.03,35.49-28.84,53.73-42.63,11.38-8.61,23.37-16.78,36.07-23.18,12.01-6.05,24.62-2.48,33.63,6.79,8.75,9,15.59,19.91,22.92,30.23,5.39,7.59,9.44,16.25,15.46,23.26,11.16,12.99,21.13,11.55,27.07-4.59,5.92-16.11,10.21-32.91,14.13-49.66,8.88-37.92,16.91-76.04,25.79-113.96,1.5-6.41,4.89-12.66,8.56-18.22,7.36-11.16,19.97-10.2,24.37,2.47,4.59,13.22,8.19,27.09,9.8,40.96,2.34,20.19,2.43,40.64,3.61,60.98,2.36,40.66,4.72,81.32,7.35,121.97.33,5.15,2.23,10.2,3.4,15.29,1.21.12,2.42.24,3.63.36Z"/>
</svg>
