<?xml version="1.0" encoding="UTF-8"?>
<svg width="720" height="418" viewBox="0 0 720 418" fill="none" xmlns="http://www.w3.org/2000/svg">
  <defs>
    <style>
      .cls-1 {
        fill: #000;
      }

      .cls-1, .cls-2 {
        stroke-width: 0px;
      }

      .cls-2 {
        fill: #283a48;
      }
    </style>
  </defs>
  <g id="Layer_2" data-name="Layer 2">
    <g id="Layer_2-2" data-name="Layer 2">
      <g>
        <path class="cls-2" d="M127.13,138.33c0-8.77-.12-17.54.03-26.31.22-13.07,10.06-22.91,22.81-23.04,13.05-.14,23.35,9.68,23.53,23,.23,17.54.2,35.1.01,52.64-.14,13.31-10.42,23.54-23.19,23.56-12.73.03-22.98-10.29-23.16-23.52-.14-8.77-.03-17.55-.03-26.32Z"/>
        <path class="cls-2" d="M496.43,61.7c0-8.77-.1-17.55.02-26.32.19-13.13,10.62-23.51,23.31-23.37,12.47.12,22.85,10.29,23.02,23.14.23,17.75.22,35.51,0,53.25-.17,13.21-10.62,23.03-23.7,22.82-12.76-.2-22.47-10.07-22.63-23.2-.11-8.77-.02-17.54-.02-26.31Z"/>
        <rect class="cls-2" x="311.76" y="65.5" width="46.52" height="91.45" rx="23.26" ry="23.26"/>
        <path class="cls-2" d="M450.61,138.34c.01,20.01.1,40.02-.03,60.03-.07,11.21-6.12,19.85-15.76,23.19-8.84,3.06-19.43.75-24.85-6.94-3.09-4.39-5.49-10.33-5.56-15.61-.45-40.22-.32-80.45-.22-120.67.03-14.06,9.82-24.06,23.05-24.06s23.14,10.07,23.3,24.03c.22,20,.06,40.02.07,60.03Z"/>
        <path class="cls-2" d="M265.75,84.59c0,19.6.03,39.21-.01,58.81-.03,14.88-9.65,25.18-23.32,25.09-13.33-.09-23.1-10.48-23.12-24.83-.04-39.62-.06-79.23,0-118.85C219.32,10.41,229.08.08,242.45,0c13.35-.08,23.22,10.25,23.26,24.57.08,19.99.02,40.01.03,60.02Z"/>
      </g>
    </g>
  </g>
  <g id="Layer_3" data-name="Layer 3">
    <g>
      <path class="cls-1" d="M103.38,352.84h-20.11v-54.11c0-2.31.02-4.58.07-6.82.04-2.22.11-4.74.18-7.51h-.51c-.47,1.39-.89,2.64-1.27,3.76-.38,1.12-.74,2.17-1.07,3.18l-21.2,61.49h-16.66l-21.58-60.86c-.42-1.21-.76-2.31-1.05-3.27-.27-.98-.71-2.41-1.28-4.29h-.56c.13,3.71.22,7,.25,9.91.04,2.89.05,5.73.05,8.52v50.02H0v-90.44h30.15l18.48,53.6c.67,1.9,1.21,3.56,1.65,5.01.42,1.45.94,3.26,1.57,5.39h.38c.76-2.28,1.36-4.05,1.79-5.35s1.05-3.02,1.79-5.17l18.48-53.48h29.08v90.41h0Z"/>
      <path class="cls-1" d="M143.04,323.38v29.46h-20.36v-90.44h31.47c11.27,0,19.86,2.46,25.77,7.38s8.86,12.19,8.86,21.83-3.31,17.81-9.93,23.4c-6.62,5.59-15.5,8.39-26.64,8.39h-9.17v-.02ZM143.04,278.04v29.71h8.52c5.05,0,8.93-1.32,11.67-3.98,2.73-2.64,4.11-6.46,4.11-11.41,0-4.58-1.34-8.12-4-10.6-2.68-2.48-6.49-3.73-11.45-3.73h-8.84Z"/>
      <path class="cls-2" d="M195.83,338.13l15.26-8.95c1.39,2.86,3.38,5.19,5.97,6.96,2.59,1.79,5.77,2.68,9.55,2.68s7.13-1.01,9.75-3.06c2.62-2.04,3.94-5.01,3.94-8.92s-1.75-7.11-5.26-9.24c-3.51-2.12-8.34-3.2-14.47-3.26h-7.38v-15.52h6.75c5.88,0,10.31-.99,13.24-2.97,2.95-1.97,4.41-5.12,4.41-9.4,0-3.24-1.05-5.73-3.13-7.47s-4.63-2.62-7.67-2.62c-2.86,0-5.52.72-7.98,2.17-2.46,1.45-4.5,3.73-6.15,6.84l-14.83-7.13c2.57-4.92,6.55-9.02,11.95-12.33,5.41-3.31,11.81-4.96,19.21-4.96,9.24,0,16.39,2.1,21.38,6.28,5.01,4.18,7.51,9.95,7.51,17.31,0,4.92-1.32,9.22-3.98,12.93-2.64,3.71-6.64,6.42-11.99,8.14v.31c5.77,1.01,10.31,3.44,13.65,7.29,3.35,3.85,5.01,8.46,5.01,13.85,0,8.45-3.02,15.14-9.04,20.06-6.04,4.92-13.94,7.38-23.75,7.38-7.87,0-14.41-1.41-19.68-4.23-5.23-2.77-9.33-6.84-12.28-12.14Z"/>
      <path class="cls-1" d="M327.72,326.98c0,8.63-1.9,15.34-5.68,20.15-3.78,4.81-9.68,7.22-17.65,7.22-2.03,0-3.89-.13-5.61-.38-1.72-.25-3.53-.67-5.43-1.27l2.77-9.15c1.43.47,2.79.8,4.07.98s2.57.29,3.87.29c4.2,0,7.43-1.34,9.68-4.03,2.24-2.69,3.38-7.25,3.38-13.69v-64.71h10.6v64.6h0Z"/>
      <path class="cls-1" d="M416.85,316.2c0,12.73-2.86,22.28-8.57,28.63-5.71,6.35-14.32,9.53-25.79,9.53s-19.21-3.06-24.69-9.15-8.23-15.26-8.23-27.51v-55.3h10.6v54.62c0,9.26,1.95,16.2,5.86,20.85,3.91,4.65,9.78,6.96,17.6,6.96s13.24-2.24,17-6.71c3.76-4.49,5.64-11.19,5.64-20.15v-55.56h10.6v53.79h-.02Z"/>
      <path class="cls-1" d="M450.02,352.84h-10.6v-90.44h10.6v90.44Z"/>
      <path class="cls-1" d="M537.49,348.3c-4.38,2.1-8.64,3.64-12.8,4.61-4.16.96-8.68,1.45-13.56,1.45-13.67,0-24.29-4.14-31.88-12.42-7.6-8.28-11.38-19.15-11.38-32.61,0-14.76,4.23-26.51,12.71-35.28,8.46-8.77,19.51-13.15,33.15-13.15,4.25,0,8.23.4,11.95,1.19s7.58,2.08,11.57,3.85l-3.91,8.7c-3.33-1.46-6.55-2.53-9.66-3.18-3.11-.65-6.47-.98-10.09-.98-10.6,0-19.01,3.42-25.27,10.25-6.24,6.84-9.37,16.15-9.37,27.98,0,11.07,3,19.84,8.99,26.37,5.99,6.51,13.93,9.78,23.82,9.78,3.65,0,7.23-.4,10.76-1.19,3.51-.8,7.09-2.1,10.76-3.91l4.2,8.54Z"/>
      <path class="cls-1" d="M601.7,352.84h-47.93v-90.44h45.92v9.59h-35.32v30.09h32.68v9.53h-32.68v31.67h37.35v9.57h-.02Z"/>
      <path class="cls-1" d="M611.28,345.89l5.17-7.94c3.71,2.41,7.4,4.14,11.1,5.23,3.71,1.1,8.01,1.65,12.93,1.65,5.5,0,10.04-1.28,13.6-3.89,3.54-2.59,5.34-6.37,5.34-11.32,0-4.41-1.5-7.94-4.5-10.6-3-2.64-7.94-5.21-14.79-7.69-8.5-3.07-14.79-6.53-18.9-10.38s-6.15-8.93-6.15-15.23c0-7.4,2.66-13.38,7.98-17.98,5.32-4.58,12.32-6.87,20.98-6.87,4.03,0,7.99.43,11.86,1.28,3.87.87,7.87,2.26,11.99,4.2l-3.98,8.52c-3.45-1.59-6.8-2.75-10.06-3.47-3.26-.72-6.78-1.07-10.56-1.07-5.43,0-9.71,1.27-12.86,3.82-3.15,2.55-4.74,6.06-4.74,10.56,0,3.96,1.45,7.11,4.36,9.46,2.89,2.35,7.74,4.76,14.5,7.2,9.08,3.27,15.61,6.94,19.55,10.98s5.93,9.48,5.93,16.33c0,7.31-2.64,13.42-7.94,18.32-5.3,4.9-12.73,7.34-22.34,7.34-5.39,0-10.34-.67-14.88-2.03-4.58-1.34-9.1-3.47-13.6-6.42Z"/>
    </g>
  </g>
</svg>
