<?xml version="1.0" encoding="utf-8"?>
<svg width="720" height="418" version="1.1" id="Layer_1" xmlns="http://www.w3.org/2000/svg" xmlns:xlink="http://www.w3.org/1999/xlink" x="0px" y="0px"
	 viewBox="0 0 720 418" style="enable-background:new 0 0 720 418;" xml:space="preserve">
<style type="text/css">
	.st0{enable-background:new    ;}
	.st1{font-family:'LeelawadeeUI-Bold';}
	.st2{font-size:114.77px;}
	.st3{fill:#283A48;}
	.st4{font-family:'Dubai-Light';}
</style>
<g id="Layer_6">
	<g class="st0">
		<text transform="matrix(1 0 0 1 51.19 412.8627)" class="st1 st2">MP</text>
		<text transform="matrix(1 0 0 1 231.52 412.8627)" class="st3 st1 st2">3</text>
		<text transform="matrix(1 0 0 1 301.84 412.8627)" class="st4 st2">JUICES</text>
	</g>
</g>
<g id="Layer_7">
	<path class="st3" d="M293.9,192c-6.1,12.7-11.5,23.6-16.6,34.5c-2.9,6.2-7.1,10.7-14.5,10.3c-7.4-0.4-11.1-5.1-13.4-11.7
		c-2.2-6.2-4.7-12.4-7.4-19.2c-2.4,2-4.3,3.6-6.2,5.2c-5.6,5-11.7,6-18.2,1.8c-8.5-5.5-17-11-25.2-16.9c-7.3-5.2-8.8-13.1-4.3-19.6
		c4.4-6.4,12.4-7.8,19.9-3.1c5.4,3.3,10.5,7,14.4,9.6c8.9-5.7,16.2-13.3,24.7-15c11.8-2.4,13.5,9.9,17.8,19.8
		c5.7-11.7,11-22.1,15.9-32.7c3.1-6.7,6.9-12.2,15.3-11.8c8.4,0.4,11.5,6.5,14,13.3c6.1,16.4,12.4,32.7,19.1,50.5
		c2.2-3.8,3.8-6.1,5-8.5c14.4-27,28.9-53.9,43.1-81c3.7-7.1,8.5-12.1,17-10c8.8,2.2,11,9,11,17.3c-0.1,21,0,42,1.6,63.4
		c1.3-4.2,2.6-8.5,3.9-12.7c11.1-39.4,22.2-78.9,33.4-118.3c0.7-2.5,1.3-5.1,2.3-7.4c2.7-6.2,7.6-9.6,14.4-8.7
		c7.2,0.9,11.4,5.5,12.1,12.6c0.5,4.9,0.2,9.8,0.2,14.7c0,41.6,0,83.2,0,124.8v10.3c6.4-2,11.8-3.9,17.3-5.4
		c8.4-2.4,15.5,1.3,17.9,8.9c2.3,7.2-1.2,14.4-9.1,17.2c-11.4,4.1-22.9,7.9-34.5,11.5c-11.1,3.4-19.1-2.4-19.3-13.9
		c-0.2-20.2-0.1-40.4-1.3-60.9c-0.8,2.2-1.7,4.4-2.4,6.7c-12.1,42.8-24.2,85.5-36.3,128.3c-1.9,6.6-5,12.6-12.2,12.6
		c-4.5,0-10-2.6-13.1-6c-2.5-2.6-2.5-8-2.5-12.2c-0.2-36.6-0.1-73.3-0.1-112.2c-2.3,3.3-3.6,4.9-4.5,6.6
		c-10.6,19.9-21.2,39.7-31.7,59.6c-3.3,6.3-7.5,11-15.4,10.3c-7.5-0.7-10.6-5.9-13-12.2C307.1,226.3,300.9,210.2,293.9,192
		L293.9,192z"/>
</g>
</svg>
