<?xml version="1.0" encoding="UTF-8"?>
<svg width="720" height="418" id="Layer_1" data-name="Layer 1" xmlns="http://www.w3.org/2000/svg" viewBox="0 0 720 418">
  <defs>
    <style>
      .cls-1, .cls-2, .cls-3, .cls-4 {
        isolation: isolate;
      }

      .cls-2 {
        font-family: Dubai-Regular, Dubai;
      }

      .cls-2, .cls-3 {
        fill: #000;
      }

      .cls-2, .cls-3, .cls-4 {
        font-size: 123.729px;
      }

      .cls-5 {
        stroke-width: 0px;
      }

      .cls-5, .cls-4 {
        fill: #283a48;
      }

      .cls-3, .cls-4 {
        font-family: LeelawadeeUI-Bold, 'Leelawadee UI';
        font-weight: 700;
      }
    </style>
  </defs>
  <g id="Layer_6" data-name="Layer 6">
    <g class="cls-1">
      <g class="cls-1">
        <text class="cls-3" transform="translate(37.957 410.144)"><tspan x="0" y="0">MP</tspan></text>
        <text class="cls-4" transform="translate(232.364 410.144)"><tspan x="0" y="0">3</tspan></text>
      </g>
      <g class="cls-1">
        <text class="cls-2" transform="translate(308.173 410.144)"><tspan x="0" y="0">JUICES</tspan></text>
      </g>
    </g>
  </g>
  <g id="Layer_7" data-name="Layer 7">
    <path class="cls-5" d="M299.646,172.076c-6.63,13.735-12.355,25.421-17.928,37.172-3.17,6.673-7.622,11.514-15.621,11.093-7.956-.42-11.966-5.552-14.435-12.57-2.361-6.716-5.099-13.314-7.967-20.742-2.555,2.145-4.668,3.859-6.695,5.66-6.08,5.423-12.624,6.49-19.61,1.919-9.12-5.962-18.284-11.859-27.156-18.165-7.859-5.595-9.487-14.101-4.657-21.152,4.754-6.932,13.39-8.409,21.497-3.385,5.768,3.568,11.32,7.503,15.578,10.349,9.627-6.113,17.497-14.295,26.671-16.171,12.775-2.609,14.543,10.694,19.2,21.367,6.156-12.613,11.805-23.858,17.141-35.242,3.364-7.169,7.428-13.195,16.451-12.732s12.398,7.018,15.125,14.349c6.587,17.659,13.346,35.263,20.613,54.421,2.426-4.064,4.054-6.533,5.444-9.131,15.524-29.086,31.102-58.161,46.454-87.334,4-7.6,9.185-13.012,18.338-10.791,9.53,2.318,11.88,9.735,11.816,18.694-.162,22.661-.054,45.322,1.682,68.338,1.391-4.571,2.857-9.12,4.151-13.713,12.01-42.508,23.987-85.016,35.986-127.524.765-2.695,1.369-5.466,2.501-8.01,2.954-6.695,8.204-10.306,15.567-9.358,7.73.992,12.29,5.919,13.077,13.627.539,5.239.194,10.576.194,15.869v145.625c6.889-2.167,12.721-4.151,18.64-5.832,9.013-2.566,16.753,1.38,19.319,9.627,2.436,7.816-1.283,15.47-9.821,18.553-12.279,4.442-24.709,8.517-37.182,12.376-11.923,3.687-20.634-2.555-20.774-15.028-.248-21.777-.065-43.564-1.401-65.708-.862,2.426-1.854,4.797-2.555,7.266-13.066,46.087-26.143,92.174-39.101,138.283-1.994,7.115-5.39,13.637-13.206,13.594-4.862-.022-10.835-2.857-14.177-6.425-2.641-2.814-2.717-8.668-2.738-13.174-.194-39.511-.108-79.033-.108-120.915-2.436,3.547-3.87,5.239-4.884,7.148-11.427,21.4-22.866,42.799-34.142,64.285-3.579,6.835-8.096,11.869-16.581,11.093-8.042-.733-11.471-6.307-14.004-13.142-6.501-17.475-13.239-34.865-20.688-54.431l-.011-.032Z"/>
  </g>
</svg>
