<svg width="100px" height="100px" xmlns="http://www.w3.org/2000/svg" xmlns:xlink="http://www.w3.org/1999/xlink" x="0px" y="0px"
	 viewBox="0 0 100 100" style="enable-background:new 0 0 100 100;" xml:space="preserve">
<style type="text/css">
	.st0{display:none;}
	.st1{display:inline;fill:#FF0000;}
	.st2{fill:#5AB4FB;}
</style>
<g id="Layer_1" class="st0">
	<path class="st1" d="M31.2,35.9c0-6,4.9-10.9,10.9-10.9h26.6V10.9c0-2.6-2.1-4.7-4.7-4.7H48.3C46.2,2.5,42.1,0,37.5,0
		s-8.7,2.5-10.8,6.2H10.9c-2.6,0-4.7,2.1-4.7,4.7v65.6c0,2.6,2.1,4.7,4.7,4.7h20.3V35.9z M37.5,7.8c2.6,0,4.7,2.1,4.7,4.7
		s-2.1,4.7-4.7,4.7s-4.7-2.1-4.7-4.7S34.9,7.8,37.5,7.8z M73.4,56.2h20.3v39.1c0,2.6-2.1,4.7-4.7,4.7H42.2c-2.6,0-4.7-2.1-4.7-4.7
		V35.9c0-2.6,2.1-4.7,4.7-4.7h26.6v20.3C68.8,54.1,70.9,56.2,73.4,56.2z M93.8,48.8V50H75V31.2h1.2c1.2,0,2.4,0.5,3.3,1.4l12.9,12.9
		C93.3,46.4,93.7,47.6,93.8,48.8z"/>
</g>
<g id="Layer_2">
	<path class="st2" d="M99,67.3c0,6.8,0,13.6,0,20.4c0,5.6-2.7,9.5-7.6,10.9c-1.3,0.4-2.7,0.5-4.1,0.5c-10.9,0-21.8,0-32.7,0
		c-7.2,0-11.8-4.5-11.8-11.8c0-13.3,0-26.6,0-39.9c0-7.3,4.3-11.6,11.6-11.6c11,0,22,0,33,0C94.7,35.8,99,40,99,47.3
		C99.1,53.9,99,60.6,99,67.3L99,67.3z M70.9,71.1L70.9,71.1c-2.3,0-4.6,0-7,0c-2.1,0-3.2,1.2-3.3,3.1c-0.1,2,1.1,3.6,3.1,3.6
		c4.9,0.1,9.7,0.1,14.5,0c1.9,0,3.1-1.5,3-3.4c0-2-1.1-3.2-3.1-3.2C75.7,71.1,73.3,71.1,70.9,71.1z M71.1,57.1L71.1,57.1
		c-2.4,0-4.8-0.1-7.2,0c-2.1,0.1-3.2,1.2-3.3,3.1c-0.1,2,1.1,3.5,3.1,3.6c4.9,0.1,9.7,0.1,14.5,0c1.9-0.1,3-1.5,3-3.4
		c0-2-1.1-3.1-3.2-3.2C75.8,57.1,73.4,57.1,71.1,57.1z"/>
	<path class="st2" d="M39.5,98.7C39,98.9,38.9,99,38.8,99c-9.2,0-18.4,0.2-27.6-0.1C5.1,98.7,1,93.8,1,87.4C0.9,78,1,68.6,1,59.2
		c0-11.9,0-23.7,0-35.6c0-7.8,4.6-12.4,12.3-12.4c2.8,0,5.5,0,8.3,0c1,0,1.6-0.3,2-1.2c2.7-6.2,7.8-9,14.2-9.1
		c6.5-0.1,11.2,3.1,14.2,9c0.5,1.1,1.1,1.4,2.3,1.4c3.8,0,7.6-0.2,11.3,0.3c5.4,0.8,9,5.3,9.1,10.9c0,1.6-0.1,3.1,0,4.7
		c0.1,1.6-0.5,1.9-2,1.9c-6.7,0-13.3-0.1-20,0c-7.3,0.2-13.6,5-15.7,12c-0.5,1.8-0.8,3.7-0.8,5.6c-0.1,11.8,0,23.6-0.1,35.4
		C36.1,87.8,35.7,93.6,39.5,98.7L39.5,98.7z M29.2,16.7c0,4.9,3.8,8.6,8.7,8.5c4.7-0.1,8.5-3.8,8.5-8.6c0-4.8-3.9-8.7-8.7-8.6
		C32.9,8,29.2,11.9,29.2,16.7z"/>
</g>
</svg>
