<svg width="100" height="100" xmlns="http://www.w3.org/2000/svg" xmlns:xlink="http://www.w3.org/1999/xlink" x="0px" y="0px"
	 viewBox="0 0 100 100" style="enable-background:new 0 0 100 100;" xml:space="preserve">
<style type="text/css">
	.st0{display:none;}
	.st1{display:inline;fill:#FF0000;}
	.st2{fill:#5AB4FB;}
</style>
<g id="Layer_1" class="st0">
	<path class="st1" d="M91.2,11.2H35.8c-0.9,0-1.8-0.4-2.4-1.2L29,3.7c0,0,0,0,0,0C27.3,1.4,24.7,0,21.9,0c0,0,0,0,0,0L8.8,0
		c0,0,0,0,0,0C4,0.1,0,4,0,8.8v82.4C0,96.1,4,100,8.8,100h82.4c4.8,0,8.8-3.9,8.8-8.8V20C100,15.1,96,11.2,91.2,11.2z M12.7,51.8
		H5.9v-8.2h6.8V51.8z M12.7,57.6v8.2H5.9v-8.2H12.7z M12.7,37.7H5.9v-8.2h6.8V37.7z M5.9,71.7h6.8v8.2H5.9V71.7z M18.6,29.5h62.9
		v64.6H18.6V29.5z M94.1,29.5v8.2h-6.8v-8.2H94.1z M87.3,57.6h6.8v8.2h-6.8V57.6z M87.3,51.8v-8.2h6.8v8.2H87.3z M87.3,71.7h6.8v8.2
		h-6.8V71.7z M8.8,5.9l13.1,0h0c0.9,0,1.8,0.4,2.4,1.2l4.4,6.3c0,0,0,0,0,0c1.6,2.3,4.3,3.6,7.1,3.6h55.4c1.6,0,2.9,1.3,2.9,2.9v3.7
		H5.9V8.8C5.9,7.2,7.2,5.9,8.8,5.9z M5.9,91.2v-5.5h6.8v8.4H8.8C7.2,94.1,5.9,92.8,5.9,91.2z M91.2,94.1h-3.9v-8.4h6.8v5.5
		C94.1,92.8,92.8,94.1,91.2,94.1z"/>
	<path class="st1" d="M63.8,57.8L46.9,46.1c-1.8-1.2-4.1-1.4-6.1-0.4c-1.9,1-3.1,3-3.1,5.2v23.2c0,2.2,1.2,4.2,3.1,5.2
		c0.9,0.5,1.8,0.7,2.7,0.7c1.2,0,2.3-0.3,3.3-1l16.9-11.5c1.6-1.1,2.5-2.9,2.6-4.8C66.3,60.7,65.4,58.9,63.8,57.8z M43.6,74.2
		l0-23.2l16.9,11.7L43.6,74.2z"/>
</g>
<g id="Layer_2">
	<path class="st2" d="M50,5.1c12,0,23.9,0,35.9,0c7.5,0,13,5.3,13,12.8c0.1,15,0.1,30,0,45c0,7.2-5.5,12.6-12.7,12.7
		c-24.1,0-48.2,0-72.2,0c-7.3,0-12.8-5.5-12.8-12.8c0-14.9,0-29.9,0-44.8c0-7.5,5.5-12.9,13-12.9C26.1,5.1,38,5.1,50,5.1L50,5.1z
		 M31.8,40.2c0,3.8,0,7.7,0,11.6c0.1,6.5,6.7,10.3,12.3,7.1c6.7-3.8,13.3-7.6,19.9-11.5c5.5-3.2,5.5-11,0-14.2
		c-6.5-3.8-13.1-7.4-19.5-11.3c-5.8-3.5-12.9,0.5-12.7,7.4C31.9,32.9,31.8,36.5,31.8,40.2L31.8,40.2z"/>
	<path class="st2" d="M38.7,85.9c3.4,0,6.9,0,10.3,0c0.7,0,1.2-0.2,1.6-0.9c2.7-4.6,8.9-4.6,11.6,0c0.4,0.7,0.9,0.9,1.6,0.8
		c6.8,0,13.6,0,20.3,0c0.5,0,1,0,1.4,0.1c1,0.3,1.6,1.2,1.6,2.3c0,1.1-0.7,2-1.8,2.3c-0.5,0.1-1,0.1-1.5,0.1c-6.7,0-13.3,0-20,0
		c-0.9,0-1.3,0.3-1.7,1c-2.6,4.4-8.8,4.4-11.4,0c-0.5-0.8-0.9-1-1.7-1c-6.6,0-13.3,0-19.9,0c-0.4,0-0.8,0-1.1,0
		c-1.4-0.1-2.3-1.1-2.3-2.4c0-1.3,1-2.4,2.4-2.4c2.4,0,4.9,0,7.3,0C36.6,86,37.7,86,38.7,85.9L38.7,85.9z"/>
	<path class="st2" d="M17.5,88.3c0,0.9,0.1,1.7,0,2.6c-0.1,1.4-1.1,2.3-2.4,2.3s-2.3-0.9-2.4-2.3c-0.1-1.7-0.1-3.4,0-5.1
		c0.1-1.4,1-2.3,2.3-2.4c1.3,0,2.3,0.9,2.4,2.4C17.6,86.6,17.5,87.5,17.5,88.3L17.5,88.3z"/>
	<path class="st2" d="M23.4,88.3c0,0.9,0.1,1.8,0,2.7c-0.1,1.3-1.1,2.2-2.3,2.2c-1.2,0-2.3-0.9-2.4-2.2c-0.1-1.8-0.1-3.6,0-5.4
		c0.1-1.3,1.2-2.2,2.4-2.1c1.2,0,2.2,1,2.3,2.3C23.5,86.6,23.4,87.4,23.4,88.3z"/>
</g>
</svg>
