<?xml version="1.0" encoding="UTF-8"?>
<svg id="Layer_2" data-name="Layer 2" width="100" height="100" xmlns="http://www.w3.org/2000/svg" viewBox="0 0 100 100">
  <defs>
    <style>
      .cls-1 {
        fill: #283a48;
        stroke-width: 0px;
      }
    </style>
  </defs>
  <path class="cls-1" d="M98.905,73.536H1.005V5.1h97.9v68.436ZM94.068,10.06H5.891v58.568h88.177V10.06Z"/>
  <path class="cls-1" d="M40.126,88.319v-4.81h4.883v14.507h-4.831v-4.818H1.005v-4.879h39.121Z"/>
  <path class="cls-1" d="M57.363,93.088v-4.716h41.553v4.716h-41.553Z"/>
  <path class="cls-1" d="M66.995,39.325c-10.647,6.377-21.097,12.635-31.67,18.968V20.36c10.554,6.32,21.029,12.594,31.67,18.966ZM40.167,49.684c5.854-3.506,11.507-6.891,17.298-10.359-5.826-3.487-11.497-6.881-17.298-10.353v20.712Z"/>
</svg>
