<?xml version="1.0" encoding="utf-8"?>
<svg version="1.1" xmlns="http://www.w3.org/2000/svg" xmlns:xlink="http://www.w3.org/1999/xlink" x="0px" y="0px"
	 width="720" height="418" viewBox="0 0 720 418" style="enable-background:new 0 0 720 418;" xml:space="preserve">
<style type="text/css">
	.st0{display:none;}
	.st1{display:inline;fill:#5AB4FB;}
	.st2{fill:#283A48;}
</style>
<g id="Layer_1" class="st0">
	<path class="st1" d="M118.26,102.32L118.26,102.32c10.84,0,19.62,8.78,19.62,19.62v129.99c0,10.84-8.78,19.62-19.62,19.62l0,0
		c-10.84,0-19.62-8.78-19.62-19.62V121.94C98.64,111.1,107.42,102.32,118.26,102.32z"/>
	<path class="st1" d="M55.9,185.96v4.08c0,9.89-8.01,17.9-17.9,17.9h0c-9.89,0-17.9-8.01-17.9-17.9v-4.08
		c0-9.89,8.01-17.9,17.9-17.9h0C47.89,168.06,55.9,176.07,55.9,185.96z"/>
	<path class="st1" d="M198.93,132.45L198.93,132.45c10.5,0,19,8.51,19,19.01v71.82c0,10.5-8.51,19.01-19.01,19.01h0
		c-10.5,0-19.01-8.51-19.01-19.01v-71.82C179.92,140.96,188.43,132.45,198.93,132.45z"/>
	<path class="st1" d="M280.01,144.72L280.01,144.72c10.5,0,19.02,8.52,19.02,19.02v46.75c0,10.5-8.52,19.02-19.02,19.02h0
		c-10.5,0-19.02-8.52-19.02-19.02v-46.75C260.99,153.24,269.51,144.72,280.01,144.72z"/>
	<path class="st1" d="M360,122.16h0.01c10.48,0,18.97,8.49,18.97,18.97v92.7c0,10.48-8.49,18.97-18.97,18.97H360
		c-10.48,0-18.97-8.49-18.97-18.97v-92.7C341.03,130.65,349.52,122.16,360,122.16z"/>
	<path class="st1" d="M440.47,152.38L440.47,152.38c10.2,0,18.47,8.27,18.47,18.47v32.48c0,10.2-8.27,18.47-18.47,18.47l0,0
		c-10.2,0-18.47-8.27-18.47-18.47v-32.48C422,160.65,430.27,152.38,440.47,152.38z"/>
	<path class="st1" d="M520.98,116.27L520.98,116.27c10.44,0,18.9,8.46,18.9,18.9v104.69c0,10.44-8.46,18.9-18.9,18.9l0,0
		c-10.44,0-18.9-8.46-18.9-18.9V135.17C502.08,124.73,510.54,116.27,520.98,116.27z"/>
	<path class="st1" d="M601.4,124.31L601.4,124.31c10.17,0,18.4,8.23,18.4,18.39v89.79c0,10.16-8.23,18.39-18.39,18.39h-0.01
		c-10.16,0-18.39-8.23-18.39-18.39V142.7C583.01,132.54,591.24,124.31,601.4,124.31z"/>
	<path class="st1" d="M700.91,181.04v13.01c0,10.2-8.26,18.46-18.46,18.46l0,0c-10.2,0-18.46-8.26-18.46-18.46v-13.01
		c0-10.2,8.26-18.46,18.46-18.46l0,0C692.65,162.58,700.91,170.84,700.91,181.04z"/>
</g>
<g id="Layer_2">
	<g>
		<path class="st2" d="M382.3,183.9c0,37.6,0.03,75.19-0.02,112.79c-0.01,10.66-5.32,18.48-14.2,21.4
			c-13.25,4.36-26.34-4.57-27.62-18.88c-0.16-1.83-0.1-3.68-0.1-5.53c-0.01-74.09-0.02-148.18,0-222.27
			c0-12.43,5.32-20.34,15.49-23.29c12.21-3.54,24.81,4.83,26.22,17.47c0.24,2.19,0.24,4.41,0.24,6.62
			c0.01,37.23,0.01,74.46,0.01,111.69C382.31,183.9,382.3,183.9,382.3,183.9z"/>
		<path class="st2" d="M465.75,218.31c0.01,18.05,0.09,36.09-0.03,54.14c-0.06,10.11-5.52,17.9-14.21,20.91
			c-7.97,2.76-17.52,0.68-22.41-6.26c-2.79-3.96-4.95-9.32-5.01-14.08c-0.41-36.27-0.29-72.55-0.2-108.82
			c0.03-12.68,8.86-21.7,20.79-21.7c11.83,0,20.87,9.08,21.01,21.67C465.89,182.21,465.74,200.26,465.75,218.31z"/>
		<path class="st2" d="M299.04,102.03c0,17.68,0.03,35.36-0.01,53.04c-0.03,13.42-8.7,22.71-21.03,22.63
			c-12.02-0.08-20.83-9.45-20.85-22.39c-0.04-35.73-0.05-71.45,0-107.18c0.02-13,8.82-22.32,20.88-22.39
			c12.04-0.07,20.94,9.24,20.98,22.16C299.08,65.93,299.03,83.98,299.04,102.03z"/>
		<path class="st2" d="M507.08,121.06c0-7.91-0.09-15.83,0.02-23.74c0.17-11.84,9.58-21.2,21.02-21.08
			c11.25,0.11,20.61,9.28,20.76,20.87c0.21,16.01,0.2,32.02,0,48.02c-0.15,11.91-9.58,20.77-21.37,20.58
			c-11.51-0.18-20.26-9.08-20.41-20.92C507,136.88,507.08,128.97,507.08,121.06z"/>
		<path class="st2" d="M174.03,190.16c0-7.91-0.11-15.82,0.03-23.73c0.2-11.79,9.07-20.66,20.57-20.78
			c11.77-0.13,21.06,8.73,21.22,20.74c0.21,15.82,0.18,31.65,0.01,47.47c-0.13,12-9.4,21.23-20.91,21.25
			c-11.48,0.03-20.72-9.28-20.89-21.21C173.93,205.99,174.03,198.07,174.03,190.16z"/>
	</g>
	<g>
		<g>
			<path d="M233.49,392.28h-11.12v-29.92c0-1.28,0.01-2.53,0.04-3.77c0.02-1.23,0.06-2.62,0.1-4.15h-0.28
				c-0.26,0.77-0.49,1.46-0.7,2.08c-0.21,0.62-0.41,1.2-0.59,1.76l-11.72,34h-9.21l-11.93-33.65c-0.23-0.67-0.42-1.28-0.58-1.81
				c-0.15-0.54-0.39-1.33-0.71-2.37h-0.31c0.07,2.05,0.12,3.87,0.14,5.48c0.02,1.6,0.03,3.17,0.03,4.71v27.66h-10.32v-50.01H193
				l10.22,29.64c0.37,1.05,0.67,1.97,0.91,2.77c0.23,0.8,0.52,1.8,0.87,2.98h0.21c0.42-1.26,0.75-2.24,0.99-2.96
				s0.58-1.67,0.99-2.86l10.22-29.57h16.08V392.28z"/>
			<path d="M255.42,375.99v16.29h-11.26v-50.01h17.4c6.23,0,10.98,1.36,14.25,4.08c3.27,2.72,4.9,6.74,4.9,12.07
				c0,5.53-1.83,9.85-5.49,12.94c-3.66,3.09-8.57,4.64-14.73,4.64H255.42z M255.42,350.92v16.43h4.71c2.79,0,4.94-0.73,6.45-2.2
				c1.51-1.46,2.27-3.57,2.27-6.31c0-2.53-0.74-4.49-2.21-5.86c-1.48-1.37-3.59-2.06-6.33-2.06H255.42z"/>
			<path class="st2" d="M284.61,384.15l8.44-4.95c0.77,1.58,1.87,2.87,3.3,3.85c1.43,0.99,3.19,1.48,5.28,1.48
				c2.14,0,3.94-0.56,5.39-1.69c1.45-1.13,2.18-2.77,2.18-4.93c0-2.23-0.97-3.93-2.91-5.11c-1.94-1.17-4.61-1.77-8-1.8h-4.08v-8.58
				h3.73c3.25,0,5.7-0.55,7.32-1.64c1.63-1.09,2.44-2.83,2.44-5.2c0-1.79-0.58-3.17-1.73-4.13s-2.56-1.45-4.24-1.45
				c-1.58,0-3.05,0.4-4.41,1.2c-1.36,0.8-2.49,2.06-3.4,3.78l-8.2-3.94c1.42-2.72,3.62-4.99,6.61-6.82
				c2.99-1.83,6.53-2.74,10.62-2.74c5.11,0,9.06,1.16,11.82,3.47c2.77,2.31,4.15,5.5,4.15,9.57c0,2.72-0.73,5.1-2.2,7.15
				c-1.46,2.05-3.67,3.55-6.63,4.5v0.17c3.19,0.56,5.7,1.9,7.55,4.03c1.85,2.13,2.77,4.68,2.77,7.66c0,4.67-1.67,8.37-5,11.09
				c-3.34,2.72-7.71,4.08-13.13,4.08c-4.35,0-7.97-0.78-10.88-2.34C288.51,389.33,286.24,387.08,284.61,384.15z"/>
			<path d="M357.54,377.98c0,4.77-1.05,8.48-3.14,11.14c-2.09,2.66-5.35,3.99-9.76,3.99c-1.12,0-2.15-0.07-3.1-0.21
				c-0.95-0.14-1.95-0.37-3-0.7l1.53-5.06c0.79,0.26,1.54,0.44,2.25,0.54c0.71,0.1,1.42,0.16,2.14,0.16c2.32,0,4.11-0.74,5.35-2.23
				c1.24-1.49,1.87-4.01,1.87-7.57v-35.78h5.86V377.98z"/>
			<path d="M406.82,372.02c0,7.04-1.58,12.32-4.74,15.83c-3.16,3.51-7.92,5.27-14.26,5.27c-6.07,0-10.62-1.69-13.65-5.06
				s-4.55-8.44-4.55-15.21v-30.58h5.86v30.2c0,5.12,1.08,8.96,3.24,11.53c2.16,2.57,5.41,3.85,9.73,3.85c4.18,0,7.32-1.24,9.4-3.71
				c2.08-2.48,3.12-6.19,3.12-11.14v-30.72h5.86V372.02z"/>
			<path d="M425.16,392.28h-5.86v-50.01h5.86V392.28z"/>
			<path d="M473.53,389.77c-2.42,1.16-4.78,2.01-7.08,2.55c-2.3,0.53-4.8,0.8-7.5,0.8c-7.56,0-13.43-2.29-17.63-6.87
				c-4.2-4.58-6.29-10.59-6.29-18.03c0-8.16,2.34-14.66,7.03-19.51c4.68-4.85,10.79-7.27,18.33-7.27c2.35,0,4.55,0.22,6.61,0.66
				s4.19,1.15,6.4,2.13l-2.16,4.81c-1.84-0.81-3.62-1.4-5.34-1.76s-3.58-0.54-5.58-0.54c-5.86,0-10.51,1.89-13.97,5.67
				c-3.45,3.78-5.18,8.93-5.18,15.47c0,6.12,1.66,10.97,4.97,14.58c3.31,3.6,7.7,5.41,13.17,5.41c2.02,0,4-0.22,5.95-0.66
				c1.94-0.44,3.92-1.16,5.95-2.16L473.53,389.77z"/>
			<path d="M509.03,392.28h-26.5v-50.01h25.39v5.3h-19.53v16.64h18.07v5.27h-18.07v17.51h20.65V392.28z"/>
			<path d="M514.33,388.44l2.86-4.39c2.05,1.33,4.09,2.29,6.14,2.89c2.05,0.61,4.43,0.91,7.15,0.91c3.04,0,5.55-0.71,7.52-2.15
				c1.96-1.43,2.95-3.52,2.95-6.26c0-2.44-0.83-4.39-2.49-5.86c-1.66-1.46-4.39-2.88-8.18-4.25c-4.7-1.7-8.18-3.61-10.45-5.74
				c-2.27-2.13-3.4-4.94-3.4-8.42c0-4.09,1.47-7.4,4.41-9.94c2.94-2.53,6.81-3.8,11.6-3.8c2.23,0,4.42,0.24,6.56,0.71
				c2.14,0.48,4.35,1.25,6.63,2.32l-2.2,4.71c-1.91-0.88-3.76-1.52-5.56-1.92c-1.8-0.4-3.75-0.59-5.84-0.59c-3,0-5.37,0.7-7.11,2.11
				c-1.74,1.41-2.62,3.35-2.62,5.84c0,2.19,0.8,3.93,2.41,5.23c1.6,1.3,4.28,2.63,8.02,3.98c5.02,1.81,8.63,3.84,10.81,6.07
				c2.18,2.23,3.28,5.24,3.28,9.03c0,4.04-1.46,7.42-4.39,10.13s-7.04,4.06-12.35,4.06c-2.98,0-5.72-0.37-8.23-1.12
				C519.32,391.25,516.82,390.07,514.33,388.44z"/>
		</g>
	</g>
</g>
</svg>
